<svg width="24" height="24" viewBox="0 0 24 24" fill="none" xmlns="http://www.w3.org/2000/svg">
<mask id="mask0_9_28" style="mask-type:alpha" maskUnits="userSpaceOnUse" x="0" y="0" width="24" height="24">
<rect width="24" height="24" fill="#D9D9D9"/>
</mask>
<g mask="url(#mask0_9_28)">
<path d="M12 19.8848C11.6308 19.8848 11.3129 19.7773 11.0463 19.5625C10.7796 19.3478 10.6232 19.0719 10.577 18.7348H10C9.732 18.7348 9.49833 18.635 9.299 18.4355C9.09967 18.2362 9 18.0025 9 17.7345V14.723C7.96533 14.15 7.165 13.3686 6.599 12.3787C6.033 11.3891 5.75 10.3462 5.75 9.25C5.75 7.5025 6.35483 6.024 7.5645 4.8145C8.774 3.60483 10.2525 3 12 3C13.7475 3 15.226 3.60483 16.4355 4.8145C17.6452 6.024 18.25 7.5025 18.25 9.25C18.25 10.3538 17.967 11.3987 17.401 12.3845C16.835 13.3705 16.0347 14.15 15 14.723V17.7345C15 18.0025 14.9003 18.2362 14.701 18.4355C14.5017 18.635 14.268 18.7348 14 18.7348H13.423C13.3768 19.0719 13.2204 19.3478 12.9538 19.5625C12.6871 19.7773 12.3692 19.8848 12 19.8848ZM10 17.7345H14V16.7578H10V17.7345ZM10 15.9885H14V15H10V15.9885ZM9.8 14H11.5578V10.877L9.473 8.79225L10.1 8.1655L12 10.0655L13.9 8.1655L14.527 8.79225L12.4423 10.877V14H14.2C15.1 13.5667 15.8333 12.9292 16.4 12.0875C16.9667 11.2458 17.25 10.3 17.25 9.25C17.25 7.78333 16.7417 6.54167 15.725 5.525C14.7083 4.50833 13.4667 4 12 4C10.5333 4 9.29167 4.50833 8.275 5.525C7.25833 6.54167 6.75 7.78333 6.75 9.25C6.75 10.3 7.03333 11.2458 7.6 12.0875C8.16667 12.9292 8.9 13.5667 9.8 14Z" fill="#384D48"/>
</g>
</svg>
